<svg width="38" height="38" viewBox="0 0 38 38" fill="none" xmlns="http://www.w3.org/2000/svg">
<g filter="url(#filter0_d_202_440)">
<rect x="7" y="4" width="24" height="24" rx="4" fill="url(#paint0_linear_202_440)"/>
<rect x="7.5" y="4.5" width="23" height="23" rx="3.5" stroke="url(#paint1_linear_202_440)"/>
</g>
<path d="M17.324 21.372H14.744C14.816 20.844 14.84 20.304 14.84 19.596V13.104C14.84 12.456 14.816 11.916 14.744 11.352C15.308 11.376 15.74 11.388 16.508 11.388H19.136C21.512 11.388 22.82 12.528 22.82 14.616C22.82 16.752 21.452 18.024 19.124 18.024H17.228V19.56C17.228 20.268 17.264 20.856 17.324 21.372ZM17.228 15.984H19.016C19.856 15.984 20.348 15.516 20.348 14.688C20.348 13.86 19.88 13.428 19.016 13.428H17.228V15.984Z" fill="#FFF9F9"/>
<defs>
<filter id="filter0_d_202_440" x="0.9" y="0.9" width="36.2" height="36.2" filterUnits="userSpaceOnUse" color-interpolation-filters="sRGB">
<feFlood flood-opacity="0" result="BackgroundImageFix"/>
<feColorMatrix in="SourceAlpha" type="matrix" values="0 0 0 0 0 0 0 0 0 0 0 0 0 0 0 0 0 0 127 0" result="hardAlpha"/>
<feOffset dy="3"/>
<feGaussianBlur stdDeviation="3.05"/>
<feComposite in2="hardAlpha" operator="out"/>
<feColorMatrix type="matrix" values="0 0 0 0 0.0221101 0 0 0 0 0.725398 0 0 0 0 0.641674 0 0 0 0.4 0"/>
<feBlend mode="normal" in2="BackgroundImageFix" result="effect1_dropShadow_202_440"/>
<feBlend mode="normal" in="SourceGraphic" in2="effect1_dropShadow_202_440" result="shape"/>
</filter>
<linearGradient id="paint0_linear_202_440" x1="9" y1="5.5" x2="39.5" y2="40" gradientUnits="userSpaceOnUse">
<stop offset="0.0659711" stop-color="#3D5453"/>
<stop offset="0.520176" stop-color="#122928"/>
<stop offset="1" stop-color="#102424"/>
</linearGradient>
<linearGradient id="paint1_linear_202_440" x1="19" y1="-3.5" x2="19" y2="30" gradientUnits="userSpaceOnUse">
<stop offset="0.106319" stop-color="#A7D1CA"/>
<stop offset="0.540255" stop-color="#FFF9F9"/>
<stop offset="1" stop-color="#B5DFDA"/>
</linearGradient>
</defs>
</svg>
